<svg width="128" height="30" viewBox="0 0 128 30" fill="none" xmlns="http://www.w3.org/2000/svg">
    <g clipPath="url(#clip0_2307_5005)">
        <path
            d="M24.6966 17.4643V14.9016H15.3765V12.3388H24.6949C24.6915 5.52268 19.1653 0 12.3475 0C5.52786 0 0 5.52786 0 12.3475V27.7136H24.6966V25.1508H5.12549V22.5881H24.6966V20.0253H10.2493V17.4626H24.6966V17.4643Z"
            fill="white" />
        <path d="M37.2394 10.0273H34.9495V25.15H37.2394V10.0273Z" fill="white" />
        <path
            d="M40.0111 14.692C41.0558 14.2119 42.705 13.623 44.5149 13.623C48.9461 13.623 50.186 15.6867 50.186 18.8211V25.1485H47.6527V24.2712C46.525 25.0172 44.7946 25.3609 43.0712 25.3609C39.8867 25.3609 38.7349 23.6737 38.7349 21.9813C38.7349 20.2889 40.2977 18.1735 43.3682 18.1752C45.0934 18.1752 46.4784 18.581 47.6527 19.2839V18.8228C47.6527 16.6814 47.3297 15.7023 44.6962 15.7023C42.0626 15.7023 40.0128 17.013 40.0128 17.013V14.6955L40.0111 14.692ZM47.5352 21.7603C46.5561 20.997 45.2298 20.2855 43.7032 20.2855C41.9417 20.2855 41.2683 21.1731 41.2683 21.9796C41.2683 23.0693 42.6498 23.4268 44.0175 23.2541C45.7962 23.0296 46.5543 22.4873 47.5335 21.724V21.7586L47.5352 21.7603Z"
            fill="white" />
        <path
            d="M66.9353 20.9497C66.5295 21.7821 65.6729 22.775 63.9097 22.775C61.48 22.775 60.6182 20.8219 60.6182 19.1485C60.6182 17.4751 61.48 15.522 63.9097 15.522C65.6746 15.522 66.5295 16.5132 66.9353 17.3456L67.0631 17.6081L69.5395 16.1523L69.4065 15.9192C68.6467 14.5912 67.0769 13.0059 63.908 13.0059C59.5441 13.0059 57.5547 16.1886 57.5547 19.1468C57.5547 22.105 59.5424 25.2877 63.908 25.2877C67.0769 25.2877 68.6467 23.7041 69.4065 22.3744L69.5395 22.1413L67.0631 20.6855L66.9353 20.948V20.9497Z"
            fill="white" />
        <path
            d="M76.8842 13.0078C75.4197 13.0078 74.1677 13.9628 73.3647 14.7814V13.2185H70.2874V25.0755H73.3647V17.5997C74.3042 16.5774 75.5372 15.9211 76.5284 15.9211C78.2398 15.9211 79.0877 17.0816 79.1223 17.13L79.3606 17.465L80.8975 14.9437V14.8677C80.8975 14.6363 79.2725 13.0078 76.8842 13.0078Z"
            fill="white" />
        <path
            d="M90.1882 20.1469C89.4214 21.2539 87.9846 22.5128 86.3734 22.5128C84.4945 22.5128 84.3391 20.5683 84.3391 18.4027V13.2185H81.2617V18.4027C81.2617 23.0999 82.6985 25.2862 85.7862 25.2862C87.47 25.2862 89.1123 24.3416 90.1882 23.2709V24.8027C90.1882 25.9528 89.6994 27.3257 87.375 27.3292H87.3646C84.8468 27.3292 83.4929 25.9286 83.4808 25.9148L83.277 25.699L81.3964 27.8248L81.5553 28.0044C81.6261 28.0856 83.3565 29.9972 87.4354 29.9972C92.2553 29.9972 93.2672 27.172 93.2672 24.8027V13.2168H90.1899V20.1435L90.1882 20.1469Z"
            fill="white" />
        <path
            d="M102.291 13.0076C100.7 13.0076 99.0146 13.6863 97.8886 14.7431V13.22H94.8113V29.8778H97.8886V23.3587C98.6243 24.1997 99.8832 25.2877 101.489 25.2877C104.674 25.2877 106.813 22.1119 106.813 19.1468C106.813 16.1817 105.629 13.0059 102.289 13.0059L102.291 13.0076ZM103.783 19.1485C103.783 20.8288 103.026 22.6265 100.904 22.6265C99.6052 22.6265 98.5535 21.3123 97.8886 20.1829V17.7169C98.7469 16.4545 100.201 15.6739 101.703 15.6739C103.579 15.6739 103.781 18.1054 103.781 19.1502L103.783 19.1485Z"
            fill="white" />
        <path
            d="M111.865 9.06641L108.787 10.0369V13.2179H106.917V15.7289H108.787V20.4537C108.787 22.8299 108.787 25.2873 111.752 25.2873C112.994 25.2873 114.512 24.1717 114.576 24.1234L114.707 24.0267L114.407 22.077L114.07 22.2531C114.061 22.2583 113.158 22.7263 112.471 22.728C112.39 22.735 112.11 22.728 111.966 22.0753C111.863 21.6038 111.863 20.9925 111.863 20.4537V15.7289H115.054V13.2179H111.863V9.06641H111.865Z"
            fill="white" />
        <path
            d="M121.817 13.0777C119.967 13.0777 118.285 13.6717 117.199 14.1708L117.042 14.2433V17.2309L117.46 16.9632C117.479 16.9511 119.47 15.6957 121.996 15.6957C124.523 15.6957 124.683 16.5211 124.683 18.5451C123.499 17.9286 122.179 17.6281 120.67 17.6281H120.668C118.81 17.6281 117.657 18.3586 117.014 18.9699C116.232 19.7177 115.764 20.74 115.764 21.7036C115.764 23.4685 116.974 25.3543 120.371 25.3543C122.059 25.3543 123.595 25.0348 124.682 24.4667V25.1419H127.757V18.5434C127.757 14.7614 125.925 13.0742 121.815 13.0742L121.817 13.0777ZM124.366 21.4722C123.518 22.1112 122.801 22.5205 121.287 22.7121C120.358 22.8296 119.525 22.6811 119.119 22.3236C118.933 22.1578 118.841 21.9575 118.841 21.7071C118.841 21.0508 119.408 20.2841 121.005 20.2841C122.128 20.2841 123.257 20.683 124.366 21.4739V21.4722Z"
            fill="white" />
    </g>
    <defs>
        <clipPath id="clip0_2307_5005">
            <rect width="127.759" height="30" fill="white" />
        </clipPath>
    </defs>
</svg>